<?xml version="1.0" encoding="UTF-8" standalone="no"?>
<!-- Created with Inkscape (http://www.inkscape.org/) -->

<svg
   xmlns:dc="http://purl.org/dc/elements/1.1/"
   xmlns:cc="http://creativecommons.org/ns#"
   xmlns:rdf="http://www.w3.org/1999/02/22-rdf-syntax-ns#"
   xmlns:svg="http://www.w3.org/2000/svg"
   xmlns="http://www.w3.org/2000/svg"
   xmlns:sodipodi="http://sodipodi.sourceforge.net/DTD/sodipodi-0.dtd"
   xmlns:inkscape="http://www.inkscape.org/namespaces/inkscape"
   width="210mm"
   height="297mm"
   viewBox="0 0 210 297"
   version="1.1"
   id="svg8"
   inkscape:version="0.92.5 (2060ec1f9f, 2020-04-08)"
   sodipodi:docname="cocheFuego3.svg">
  <defs
     id="defs2" />
  <sodipodi:namedview
     id="base"
     pagecolor="#ffffff"
     bordercolor="#666666"
     borderopacity="1.0"
     inkscape:pageopacity="0.0"
     inkscape:pageshadow="2"
     inkscape:zoom="1.979899"
     inkscape:cx="262.75271"
     inkscape:cy="567.71519"
     inkscape:document-units="mm"
     inkscape:current-layer="layer1"
     showgrid="false"
     showguides="true"
     inkscape:guide-bbox="true"
     inkscape:window-width="1318"
     inkscape:window-height="704"
     inkscape:window-x="48"
     inkscape:window-y="27"
     inkscape:window-maximized="1" />
  <metadata
     id="metadata5">
    <rdf:RDF>
      <cc:Work
         rdf:about="">
        <dc:format>image/svg+xml</dc:format>
        <dc:type
           rdf:resource="http://purl.org/dc/dcmitype/StillImage" />
        <dc:title></dc:title>
      </cc:Work>
    </rdf:RDF>
  </metadata>
  <g
     inkscape:label="Capa 1"
     inkscape:groupmode="layer"
     id="layer1">
    <path
       style="fill:none;stroke:#000000;stroke-width:0.3013745px;stroke-linecap:butt;stroke-linejoin:miter;stroke-opacity:1"
       d="m 54.407769,138.79481 v 28.16089 c 0,0 57.116141,2.2689 69.962931,-2.40235"
       id="path10"
       inkscape:connector-curvature="0"
       sodipodi:nodetypes="ccc" />
    <path
       style="fill:none;stroke:#000000;stroke-width:0.3013745px;stroke-linecap:butt;stroke-linejoin:miter;stroke-opacity:1"
       d="m 54.407769,138.79481 c -0.04734,-0.89941 72.985741,-0.43328 69.962931,25.75854"
       id="path12"
       inkscape:connector-curvature="0"
       sodipodi:nodetypes="cc" />
    <path
       style="fill:#646464;stroke:#3c3c3c;stroke-width:1.249;stroke-linecap:butt;stroke-linejoin:miter;stroke-opacity:1;fill-opacity:1;stroke-miterlimit:4;stroke-dasharray:none"
       d="m 54.389347,142.25094 -1.937702,-0.0668 -0.267272,20.3793 2.271792,0.13364"
       id="path14"
       inkscape:connector-curvature="0" />
    <path
       style="fill:#646464;stroke:#3c3c3c;stroke-width:1.249;stroke-linecap:butt;stroke-linejoin:miter;stroke-opacity:1;fill-opacity:1;stroke-miterlimit:4;stroke-dasharray:none"
       d="m 52.451645,142.18414 v 0 l -1.33635,-0.93546 -0.400902,21.98292 1.46998,-0.66816"
       id="path16"
       inkscape:connector-curvature="0" />
    <path
       style="fill:#646464;stroke:#3c3c3c;stroke-width:1.249;stroke-linecap:butt;stroke-linejoin:miter;stroke-opacity:1;fill-opacity:1;stroke-miterlimit:4;stroke-dasharray:none"
       d="m 51.115295,141.24868 -1.46998,-1.13589 -0.267271,24.05425 1.336349,-0.93544"
       id="path18"
       inkscape:connector-curvature="0" />
    <path
       style="fill:#646464;stroke:#3c3c3c;stroke-width:1.249;stroke-linecap:butt;stroke-linejoin:miter;stroke-opacity:1;fill-opacity:1;stroke-miterlimit:4;stroke-dasharray:none"
       d="m 49.378044,164.16704 -1.403165,1.26953 0.200454,-26.25923 1.469982,0.93545"
       id="path22"
       inkscape:connector-curvature="0" />
    <path
       style="opacity:1;fill:#d40000;fill-opacity:1;stroke:#a60000;stroke-width:5.40094495;stroke-linecap:round;stroke-linejoin:round;stroke-miterlimit:4;stroke-dasharray:none;stroke-dashoffset:0;stroke-opacity:1"
       d="m 250.34342,631.50912 c -14.33928,-0.33207 -30.00892,-0.81915 -34.82142,-1.08243 l -8.75,-0.47867 v -52.35374 -52.35373 l 5.81286,-0.51455 c 5.99602,-0.53077 23.58015,-0.0849 44.18714,1.12036 53.15045,3.10874 102.32355,11.35236 138.77122,23.26431 43.30026,14.15154 68.39692,34.23029 73.02614,58.42506 1.17984,6.16647 1.35734,11.69484 0.42284,13.16974 -0.84391,1.33191 -12.67278,4.09799 -24.7202,5.7806 -11.85337,1.65552 -32.67335,3.3363 -53.92858,4.35364 -20.82947,0.99696 -107.88125,1.41319 -140,0.66941 z"
       id="path24"
       inkscape:connector-curvature="0"
       transform="scale(0.26458333)" />
    <path
       style="fill:#4eabc0;fill-opacity:1;stroke:#24648c;stroke-width:1.51786196;stroke-linecap:butt;stroke-linejoin:round;stroke-miterlimit:4;stroke-dasharray:none;stroke-opacity:1"
       d="m 88.763234,145.70296 c 0,0 19.761546,1.62186 27.852666,10.69681 3.07997,3.45447 -25.454052,2.19381 -27.982213,2.31581 z"
       id="path880"
       inkscape:connector-curvature="0"
       sodipodi:nodetypes="cscc" />
    <ellipse
       style="opacity:1;fill:#737373;fill-opacity:1;stroke:#555555;stroke-width:1.42900765;stroke-linecap:round;stroke-linejoin:round;stroke-miterlimit:4;stroke-dasharray:none;stroke-dashoffset:0;stroke-opacity:1"
       id="path886"
       cx="19.958838"
       cy="175.0031"
       rx="11.310083"
       ry="10.752313"
       transform="rotate(-16.602529)" />
    <path
       style="fill:none;stroke:#464646;stroke-width:0.465;stroke-linecap:butt;stroke-linejoin:miter;stroke-miterlimit:4;stroke-dasharray:none;stroke-opacity:1"
       d="m 59.663562,165.40664 c 4.766641,11.07076 15.644855,4.02112 15.644855,4.02112 l -6.350253,-6.91502 z"
       id="path905"
       inkscape:connector-curvature="0"
       sodipodi:nodetypes="cccc" />
    <path
       style="fill:none;stroke:#464646;stroke-width:0.465;stroke-linecap:butt;stroke-linejoin:miter;stroke-miterlimit:4;stroke-dasharray:none;stroke-opacity:1"
       d="m 71.528017,152.58817 c -13.654002,-0.8634 -12.092978,11.87108 -12.092978,11.87108 l 9.258137,-2.77388 z"
       id="path905-5"
       inkscape:connector-curvature="0"
       sodipodi:nodetypes="cccc" />
    <path
       style="fill:none;stroke:#464646;stroke-width:0.465;stroke-linecap:butt;stroke-linejoin:miter;stroke-miterlimit:4;stroke-dasharray:none;stroke-opacity:1"
       d="M 76.146854,168.84618 C 84.408886,157.5549 72.31905,152.70086 72.31905,152.70086 l -2.67387,9.2347 z"
       id="path905-3"
       inkscape:connector-curvature="0"
       sodipodi:nodetypes="cccc" />
    <ellipse
       transform="rotate(-16.602529)"
       ry="4.2768073"
       rx="4.4986649"
       cy="193.1104"
       cx="60.577908"
       id="ellipse1111"
       style="opacity:1;fill:#737373;fill-opacity:1;stroke:#555555;stroke-width:0.56839776;stroke-linecap:round;stroke-linejoin:round;stroke-miterlimit:4;stroke-dasharray:none;stroke-dashoffset:0;stroke-opacity:1" />
    <path
       sodipodi:nodetypes="cccc"
       inkscape:connector-curvature="0"
       id="path1113"
       d="m 109.46443,169.10394 c 1.89596,4.40347 6.22285,1.59943 6.22285,1.59943 l -2.52586,-2.7505 z"
       style="fill:none;stroke:#464646;stroke-width:0.184957;stroke-linecap:butt;stroke-linejoin:miter;stroke-miterlimit:4;stroke-dasharray:none;stroke-opacity:1" />
    <path
       sodipodi:nodetypes="cccc"
       inkscape:connector-curvature="0"
       id="path1115"
       d="m 114.1836,164.0053 c -5.43098,-0.34342 -4.81007,4.72181 -4.81007,4.72181 l 3.68249,-1.10333 z"
       style="fill:none;stroke:#464646;stroke-width:0.184957;stroke-linecap:butt;stroke-linejoin:miter;stroke-miterlimit:4;stroke-dasharray:none;stroke-opacity:1" />
    <path
       sodipodi:nodetypes="cccc"
       inkscape:connector-curvature="0"
       id="path1117"
       d="m 116.02077,170.47204 c 3.28629,-4.49119 -1.52253,-6.42191 -1.52253,-6.42191 l -1.06355,3.67316 z"
       style="fill:none;stroke:#464646;stroke-width:0.184957;stroke-linecap:butt;stroke-linejoin:miter;stroke-miterlimit:4;stroke-dasharray:none;stroke-opacity:1" />
    <path
       style="fill:#e30000;fill-opacity:1;stroke:#e30000;stroke-width:0.26458332px;stroke-linecap:butt;stroke-linejoin:miter;stroke-opacity:1"
       d="m 47.440341,142.78548 -11.826676,-6.14719 1.737253,6.949 c 0,0 -15.200956,-2.18826 -15.067321,-1.85418 0.133635,0.33409 8.646948,6.79935 8.646948,6.79935 l -11.677642,5.16324 12.217269,1.23434 -0.634936,11.76738 9.322012,-6.13852 -0.06682,7.14946 7.216275,-5.47902 z"
       id="path1157"
       inkscape:connector-curvature="0"
       sodipodi:nodetypes="cccccccccccc" />
    <path
       style="fill:#ff7800;fill-opacity:1;stroke:#ff7800;stroke-width:0.26458332px;stroke-linecap:butt;stroke-linejoin:miter;stroke-opacity:1"
       d="m 47.365795,146.63562 -6.698189,-4.1186 -0.278735,3.52395 -11.85032,-1.66511 8.764202,5.7327 -9.37899,2.7002 8.240147,0.46102 -2.199076,8.49496 8.125508,-3.64276 -0.159921,5.7999 5.11275,-5.7317 z"
       id="path1161"
       inkscape:connector-curvature="0"
       sodipodi:nodetypes="cccccccccccc" />
    <path
       style="fill:#e8ea00;fill-opacity:1;stroke:#e8ea00;stroke-width:0.26458332px;stroke-linecap:butt;stroke-linejoin:miter;stroke-opacity:1"
       d="m 47.440341,148.79905 -4.804135,-3.30215 0.965493,4.31489 -6.18495,-1.82561 4.178055,5.17024 -4.076268,4.71399 6.427729,-2.28424 0.467723,4.15414 2.959536,-6.13041 0.06682,-4.67722 z"
       id="path1163"
       inkscape:connector-curvature="0"
       sodipodi:nodetypes="ccccccccccc" />
  </g>
</svg>
