<?xml version="1.0" encoding="UTF-8" standalone="no"?>
<!-- Created with Inkscape (http://www.inkscape.org/) -->

<svg
   xmlns:dc="http://purl.org/dc/elements/1.1/"
   xmlns:cc="http://creativecommons.org/ns#"
   xmlns:rdf="http://www.w3.org/1999/02/22-rdf-syntax-ns#"
   xmlns:svg="http://www.w3.org/2000/svg"
   xmlns="http://www.w3.org/2000/svg"
   xmlns:sodipodi="http://sodipodi.sourceforge.net/DTD/sodipodi-0.dtd"
   xmlns:inkscape="http://www.inkscape.org/namespaces/inkscape"
   width="210mm"
   height="297mm"
   viewBox="0 0 210 297"
   version="1.1"
   id="svg8"
   inkscape:version="0.92.5 (2060ec1f9f, 2020-04-08)"
   sodipodi:docname="cocheFuego2.svg">
  <defs
     id="defs2" />
  <sodipodi:namedview
     id="base"
     pagecolor="#ffffff"
     bordercolor="#666666"
     borderopacity="1.0"
     inkscape:pageopacity="0.0"
     inkscape:pageshadow="2"
     inkscape:zoom="1.979899"
     inkscape:cx="208.39914"
     inkscape:cy="528.5447"
     inkscape:document-units="mm"
     inkscape:current-layer="layer1"
     showgrid="false"
     showguides="true"
     inkscape:guide-bbox="true"
     inkscape:window-width="1318"
     inkscape:window-height="704"
     inkscape:window-x="48"
     inkscape:window-y="27"
     inkscape:window-maximized="1" />
  <metadata
     id="metadata5">
    <rdf:RDF>
      <cc:Work
         rdf:about="">
        <dc:format>image/svg+xml</dc:format>
        <dc:type
           rdf:resource="http://purl.org/dc/dcmitype/StillImage" />
        <dc:title />
      </cc:Work>
    </rdf:RDF>
  </metadata>
  <g
     inkscape:label="Capa 1"
     inkscape:groupmode="layer"
     id="layer1">
    <path
       style="fill:none;stroke:#000000;stroke-width:0.3013745px;stroke-linecap:butt;stroke-linejoin:miter;stroke-opacity:1"
       d="m 54.407769,138.79481 v 28.16089 c 0,0 57.116141,2.2689 69.962931,-2.40235"
       id="path10"
       inkscape:connector-curvature="0"
       sodipodi:nodetypes="ccc" />
    <path
       style="fill:none;stroke:#000000;stroke-width:0.3013745px;stroke-linecap:butt;stroke-linejoin:miter;stroke-opacity:1"
       d="m 54.407769,138.79481 c -0.04734,-0.89941 72.985741,-0.43328 69.962931,25.75854"
       id="path12"
       inkscape:connector-curvature="0"
       sodipodi:nodetypes="cc" />
    <path
       style="fill:#646464;stroke:#3c3c3c;stroke-width:1.249;stroke-linecap:butt;stroke-linejoin:miter;stroke-opacity:1;fill-opacity:1;stroke-miterlimit:4;stroke-dasharray:none"
       d="m 54.389347,142.25094 -1.937702,-0.0668 -0.267272,20.3793 2.271792,0.13364"
       id="path14"
       inkscape:connector-curvature="0" />
    <path
       style="fill:#646464;stroke:#3c3c3c;stroke-width:1.249;stroke-linecap:butt;stroke-linejoin:miter;stroke-opacity:1;fill-opacity:1;stroke-miterlimit:4;stroke-dasharray:none"
       d="m 52.451645,142.18414 v 0 l -1.33635,-0.93546 -0.400902,21.98292 1.46998,-0.66816"
       id="path16"
       inkscape:connector-curvature="0" />
    <path
       style="fill:#646464;stroke:#3c3c3c;stroke-width:1.249;stroke-linecap:butt;stroke-linejoin:miter;stroke-opacity:1;fill-opacity:1;stroke-miterlimit:4;stroke-dasharray:none"
       d="m 51.115295,141.24868 -1.46998,-1.13589 -0.267271,24.05425 1.336349,-0.93544"
       id="path18"
       inkscape:connector-curvature="0" />
    <path
       style="fill:#646464;stroke:#3c3c3c;stroke-width:1.249;stroke-linecap:butt;stroke-linejoin:miter;stroke-opacity:1;fill-opacity:1;stroke-miterlimit:4;stroke-dasharray:none"
       d="m 49.378044,164.16704 -1.403165,1.26953 0.200454,-26.25923 1.469982,0.93545"
       id="path22"
       inkscape:connector-curvature="0" />
    <path
       style="opacity:1;fill:#d40000;fill-opacity:1;stroke:#a60000;stroke-width:5.40094495;stroke-linecap:round;stroke-linejoin:round;stroke-miterlimit:4;stroke-dasharray:none;stroke-dashoffset:0;stroke-opacity:1"
       d="m 250.34342,631.50912 c -14.33928,-0.33207 -30.00892,-0.81915 -34.82142,-1.08243 l -8.75,-0.47867 v -52.35374 -52.35373 l 5.81286,-0.51455 c 5.99602,-0.53077 23.58015,-0.0849 44.18714,1.12036 53.15045,3.10874 102.32355,11.35236 138.77122,23.26431 43.30026,14.15154 68.39692,34.23029 73.02614,58.42506 1.17984,6.16647 1.35734,11.69484 0.42284,13.16974 -0.84391,1.33191 -12.67278,4.09799 -24.7202,5.7806 -11.85337,1.65552 -32.67335,3.3363 -53.92858,4.35364 -20.82947,0.99696 -107.88125,1.41319 -140,0.66941 z"
       id="path24"
       inkscape:connector-curvature="0"
       transform="scale(0.26458333)" />
    <path
       style="fill:#4eabc0;fill-opacity:1;stroke:#24648c;stroke-width:1.51786196;stroke-linecap:butt;stroke-linejoin:round;stroke-miterlimit:4;stroke-dasharray:none;stroke-opacity:1"
       d="m 88.763234,145.70296 c 0,0 19.761546,1.62186 27.852666,10.69681 3.07997,3.45447 -25.454052,2.19381 -27.982213,2.31581 z"
       id="path880"
       inkscape:connector-curvature="0"
       sodipodi:nodetypes="cscc" />
    <ellipse
       style="opacity:1;fill:#737373;fill-opacity:1;stroke:#555555;stroke-width:1.42900765;stroke-linecap:round;stroke-linejoin:round;stroke-miterlimit:4;stroke-dasharray:none;stroke-dashoffset:0;stroke-opacity:1"
       id="path886"
       cx="20.412436"
       cy="173.48177"
       rx="11.310083"
       ry="10.752313"
       transform="rotate(-16.602529)" />
    <path
       style="fill:none;stroke:#464646;stroke-width:0.465;stroke-linecap:butt;stroke-linejoin:miter;stroke-miterlimit:4;stroke-dasharray:none;stroke-opacity:1"
       d="m 59.663562,163.81913 c 4.766641,11.07076 15.644855,4.02112 15.644855,4.02112 l -6.350253,-6.91502 z"
       id="path905"
       inkscape:connector-curvature="0"
       sodipodi:nodetypes="cccc" />
    <path
       style="fill:none;stroke:#464646;stroke-width:0.465;stroke-linecap:butt;stroke-linejoin:miter;stroke-miterlimit:4;stroke-dasharray:none;stroke-opacity:1"
       d="m 71.528017,151.00066 c -13.654002,-0.8634 -12.092978,11.87108 -12.092978,11.87108 l 9.258137,-2.77388 z"
       id="path905-5"
       inkscape:connector-curvature="0"
       sodipodi:nodetypes="cccc" />
    <path
       style="fill:none;stroke:#464646;stroke-width:0.465;stroke-linecap:butt;stroke-linejoin:miter;stroke-miterlimit:4;stroke-dasharray:none;stroke-opacity:1"
       d="M 76.146854,167.25867 C 84.408886,155.96739 72.31905,151.11335 72.31905,151.11335 l -2.67387,9.2347 z"
       id="path905-3"
       inkscape:connector-curvature="0"
       sodipodi:nodetypes="cccc" />
    <ellipse
       transform="rotate(-16.602529)"
       ry="4.2768073"
       rx="4.4986649"
       cy="191.58907"
       cx="61.031506"
       id="ellipse1111"
       style="opacity:1;fill:#737373;fill-opacity:1;stroke:#555555;stroke-width:0.56839776;stroke-linecap:round;stroke-linejoin:round;stroke-miterlimit:4;stroke-dasharray:none;stroke-dashoffset:0;stroke-opacity:1" />
    <path
       sodipodi:nodetypes="cccc"
       inkscape:connector-curvature="0"
       id="path1113"
       d="m 109.46443,167.51643 c 1.89596,4.40347 6.22285,1.59943 6.22285,1.59943 l -2.52586,-2.7505 z"
       style="fill:none;stroke:#464646;stroke-width:0.184957;stroke-linecap:butt;stroke-linejoin:miter;stroke-miterlimit:4;stroke-dasharray:none;stroke-opacity:1" />
    <path
       sodipodi:nodetypes="cccc"
       inkscape:connector-curvature="0"
       id="path1115"
       d="m 114.1836,162.41779 c -5.43098,-0.34342 -4.81007,4.72181 -4.81007,4.72181 l 3.68249,-1.10333 z"
       style="fill:none;stroke:#464646;stroke-width:0.184957;stroke-linecap:butt;stroke-linejoin:miter;stroke-miterlimit:4;stroke-dasharray:none;stroke-opacity:1" />
    <path
       sodipodi:nodetypes="cccc"
       inkscape:connector-curvature="0"
       id="path1117"
       d="m 116.02077,168.88453 c 3.28629,-4.49119 -1.52253,-6.42191 -1.52253,-6.42191 l -1.06355,3.67316 z"
       style="fill:none;stroke:#464646;stroke-width:0.184957;stroke-linecap:butt;stroke-linejoin:miter;stroke-miterlimit:4;stroke-dasharray:none;stroke-opacity:1" />
    <path
       style="fill:#e30000;fill-opacity:1;stroke:#e30000;stroke-width:0.26458332px;stroke-linecap:butt;stroke-linejoin:miter;stroke-opacity:1"
       d="m 47.440341,142.78548 -10.289876,-8.75307 -0.467721,9.08716 c 0,0 -13.864608,-3.8587 -13.730973,-3.52462 0.133635,0.33409 6.909696,9.33841 6.909696,9.33841 l -10.742199,7.16777 12.350904,-1.17109 -4.042622,12.63601 13.331054,-8.27668 -2.204974,8.68626 8.753075,-5.74629 z"
       id="path1157"
       inkscape:connector-curvature="0"
       sodipodi:nodetypes="cccccccccccc" />
    <path
       style="fill:#ff7800;fill-opacity:1;stroke:#ff7800;stroke-width:0.26458332px;stroke-linecap:butt;stroke-linejoin:miter;stroke-opacity:1"
       d="m 47.365795,146.63562 -6.564554,-6.12312 0.85716,6.12983 -10.848059,-1.46466 6.158324,5.03112 -10.314433,2.19907 10.411711,0.7951 -3.669057,9.16313 8.960724,-5.7141 0.307801,6.80217 4.511394,-5.99897 z"
       id="path1161"
       inkscape:connector-curvature="0"
       sodipodi:nodetypes="cccccccccccc" />
    <path
       style="fill:#e8ea00;fill-opacity:1;stroke:#e8ea00;stroke-width:0.26458332px;stroke-linecap:butt;stroke-linejoin:miter;stroke-opacity:1"
       d="m 47.440341,148.79905 -3.467787,-3.5026 0.965493,4.61557 -6.853124,-0.92358 4.011011,3.76708 -4.176494,3.97899 6.461138,-1.51584 -0.334086,3.82006 3.327032,-5.42883 0.06682,-4.67722 z"
       id="path1163"
       inkscape:connector-curvature="0"
       sodipodi:nodetypes="ccccccccccc" />
  </g>
</svg>
