<?xml version="1.0" encoding="UTF-8" standalone="no"?>
<!-- Created with Inkscape (http://www.inkscape.org/) -->

<svg
   xmlns:dc="http://purl.org/dc/elements/1.1/"
   xmlns:cc="http://creativecommons.org/ns#"
   xmlns:rdf="http://www.w3.org/1999/02/22-rdf-syntax-ns#"
   xmlns:svg="http://www.w3.org/2000/svg"
   xmlns="http://www.w3.org/2000/svg"
   xmlns:sodipodi="http://sodipodi.sourceforge.net/DTD/sodipodi-0.dtd"
   xmlns:inkscape="http://www.inkscape.org/namespaces/inkscape"
   width="210mm"
   height="297mm"
   viewBox="0 0 210 297"
   version="1.1"
   id="svg1228"
   inkscape:version="0.92.5 (2060ec1f9f, 2020-04-08)"
   sodipodi:docname="COCHE_GALLINA.svg"
   inkscape:export-filename="/home/miguel/Documentos/Programas/Unity/Juego de la gallina 2.0/Assets/sprites/cocheGallina/jpg/COCHE_GALLINA.png"
   inkscape:export-xdpi="343"
   inkscape:export-ydpi="343">
  <defs
     id="defs1222" />
  <sodipodi:namedview
     id="base"
     pagecolor="#ffffff"
     bordercolor="#666666"
     borderopacity="1.0"
     inkscape:pageopacity="0.0"
     inkscape:pageshadow="2"
     inkscape:zoom="1"
     inkscape:cx="327.86025"
     inkscape:cy="956.99342"
     inkscape:document-units="mm"
     inkscape:current-layer="layer1"
     showgrid="false"
     showguides="true"
     inkscape:guide-bbox="true"
     inkscape:window-width="1318"
     inkscape:window-height="704"
     inkscape:window-x="48"
     inkscape:window-y="27"
     inkscape:window-maximized="1">
    <sodipodi:guide
       position="137.58333,253.66927"
       orientation="0,1"
       id="guide1009"
       inkscape:locked="false" />
  </sodipodi:namedview>
  <metadata
     id="metadata1225">
    <rdf:RDF>
      <cc:Work
         rdf:about="">
        <dc:format>image/svg+xml</dc:format>
        <dc:type
           rdf:resource="http://purl.org/dc/dcmitype/StillImage" />
        <dc:title />
      </cc:Work>
    </rdf:RDF>
  </metadata>
  <g
     inkscape:label="Capa 1"
     inkscape:groupmode="layer"
     id="layer1">
    <circle
       style="opacity:1;fill:#555555;fill-opacity:1;stroke:#2d2d2d;stroke-width:0.60039067;stroke-linecap:round;stroke-linejoin:round;stroke-miterlimit:4;stroke-dasharray:none;stroke-dashoffset:0;stroke-opacity:1"
       id="path1230"
       cx="18.940378"
       cy="34.539948"
       r="6.9977713" />
    <circle
       style="opacity:1;fill:#8c8c8c;fill-opacity:1;stroke:#2d2d2d;stroke-width:0.60039067;stroke-linecap:round;stroke-linejoin:round;stroke-miterlimit:4;stroke-dasharray:none;stroke-dashoffset:0;stroke-opacity:1"
       id="path1778"
       cx="18.943804"
       cy="34.514267"
       r="2.9433088" />
    <path
       style="fill:none;stroke:#000000;stroke-width:0.23887724px;stroke-linecap:butt;stroke-linejoin:miter;stroke-opacity:1"
       d="m 11.661161,34.702331 c 0,-9.79703 14.56804,-9.833457 14.65471,-1e-5 -0.0521,2.48351 2.87084,2.51169 2.84009,0 0,-13.836067 -20.3826396,-13.820638 -20.3826396,0.0132 0.0114,2.64058 2.8979596,2.40433 2.8878396,-0.0132 z"
       id="path1802"
       inkscape:connector-curvature="0"
       sodipodi:nodetypes="cccccc" />
    <path
       style="fill:none;stroke:#000000;stroke-width:0.23887724px;stroke-linecap:butt;stroke-linejoin:miter;stroke-opacity:1"
       d="m 8.8751814,34.754001 c -4.91447,0.57983 -4.29596,-9.745863 -4.14355,-9.77276 C 4.6584314,1.8584177 37.363181,-1.3004903 50.872161,11.832777 l 11.38218,6.579822 c 10.55917,4.107291 8.8736,17.407812 0.35651,16.341392"
       id="path1841"
       inkscape:connector-curvature="0"
       sodipodi:nodetypes="ccccc" />
    <circle
       style="opacity:1;fill:#555555;fill-opacity:1;stroke:#2d2d2d;stroke-width:0.60039067;stroke-linecap:round;stroke-linejoin:round;stroke-miterlimit:4;stroke-dasharray:none;stroke-dashoffset:0;stroke-opacity:1"
       id="path1230-2"
       cx="52.42165"
       cy="34.553078"
       r="6.9977713" />
    <circle
       style="opacity:1;fill:#8c8c8c;fill-opacity:1;stroke:#2d2d2d;stroke-width:0.60039067;stroke-linecap:round;stroke-linejoin:round;stroke-miterlimit:4;stroke-dasharray:none;stroke-dashoffset:0;stroke-opacity:1"
       id="path1778-6"
       cx="52.425053"
       cy="34.527382"
       r="2.9433088" />
    <path
       style="fill:none;stroke:#000000;stroke-width:0.23887724px;stroke-linecap:butt;stroke-linejoin:miter;stroke-opacity:1"
       d="m 45.142411,34.715451 c 0,-9.797029 14.56805,-9.833459 14.65472,-1e-5 -0.0521,2.48351 2.87083,2.51169 2.84008,0 0,-13.836057 -20.38264,-13.820643 -20.38264,0.0132 0.0115,2.64058 2.89797,2.40433 2.88784,-0.0132 z"
       id="path1802-1"
       inkscape:connector-curvature="0"
       sodipodi:nodetypes="cccccc" />
    <path
       style="fill:none;stroke:#000000;stroke-width:0.23887724px;stroke-linecap:butt;stroke-linejoin:miter;stroke-opacity:1"
       d="m 29.189831,34.753991 h 13.06049"
       id="path1876"
       inkscape:connector-curvature="0" />
    <ellipse
       style="opacity:1;fill:#ffec74;fill-opacity:1;stroke:#2d2d2d;stroke-width:0.43318683;stroke-linecap:round;stroke-linejoin:round;stroke-miterlimit:4;stroke-dasharray:none;stroke-dashoffset:0;stroke-opacity:1"
       id="path1878"
       cx="65.724503"
       cy="27.916498"
       rx="1.4777029"
       ry="3.0631289" />
    <path
       style="fill:none;stroke:#000000;stroke-width:0.23887724px;stroke-linecap:butt;stroke-linejoin:miter;stroke-opacity:1"
       d="m 16.151261,23.011899 h 33.18687 c 2.35593,-0.09555 2.32966,-0.154218 2.98167,-1.278817 0.2531,-1.552047 0.54806,-4.205522 -2.14747,-6.50628 -2.22786,-1.842606 -4.38999,-3.296635 -6.94356,-4.50305 -3.37976,-1.8805063 -5.74271,-2.6480363 -9.97219,-3.1109123 -3.38762,-0.374641 -8.46461,-0.255916 -11.34667,0.725165 -3.18688,0.908324 -7.90024,2.9261983 -10.1928,7.2080853 -1.06986,2.323266 -1.7802696,4.123078 0.46708,6.442036 1.17863,1.171278 2.84027,1.023773 3.96707,1.023773 z"
       id="path1880"
       inkscape:connector-curvature="0"
       sodipodi:nodetypes="cccccccccc" />
    <path
       style="opacity:1;fill:#ffff00;fill-opacity:1;stroke:#2d2d2d;stroke-width:0.30324307;stroke-linecap:round;stroke-linejoin:round;stroke-miterlimit:4;stroke-dasharray:none;stroke-dashoffset:0;stroke-opacity:1"
       d="m 7.6776414,34.471911 c -0.67009,-0.2112 -1.58968,-1.22127 -1.96267,-2.15576 -0.65513,-1.64137 -0.85815,-3.03338 -0.85035,-5.830467 0.004,-1.393518 0.0718,-3.103748 0.15096,-3.800511 0.5317,-4.681055 2.17637,-8.193083 5.3153296,-11.350377 3.50117,-3.5216103 8.16956,-5.7039083 14.31958,-6.6938683 1.63476,-0.263145 6.35524,-0.366481 8.32564,-0.182254 6.65264,0.622003 13.06823,3.211943 17.1126,6.9082673 0.69032,0.630921 10.95241,6.649721 12.86151,7.543392 2.93927,1.375896 5.03419,3.592675 5.95576,6.30222 0.99666,2.930311 0.45773,5.997018 -1.37527,7.825728 -1.01307,1.01071 -2.45043,1.59137 -3.93925,1.59137 h -0.74153 l -0.0787,-0.93505 c -0.24526,-2.91476 -1.52194,-5.524632 -3.4952,-7.145104 -1.02712,-0.843479 -2.64309,-1.650715 -4.03652,-2.016391 -0.9558,-0.250827 -1.46032,-0.308615 -2.73998,-0.313854 -1.99896,-0.0082 -3.24485,0.277054 -5.00703,1.146296 -1.11485,0.549929 -1.40438,0.763167 -2.41331,1.777404 -0.63056,0.633876 -1.33091,1.467145 -1.55633,1.851701 -0.62879,1.072678 -1.18491,2.853418 -1.35473,4.337998 l -0.14837,1.297 h -6.35507 -6.35507 l -0.0715,-1.11602 c -0.28636,-4.467809 -3.23524,-7.953067 -7.64924,-9.040602 -1.40906,-0.347171 -3.66284,-0.371482 -5.03025,-0.05427 -4.08249,0.947072 -6.8643796,3.744463 -7.6868996,7.729712 -0.12414,0.60153 -0.22643,1.40587 -0.2273,1.78743 -10e-4,0.64222 -0.0217,0.69283 -0.27305,0.68143 -0.14931,-0.007 -0.4615,-0.0722 -0.69375,-0.14542 z m 58.7105196,-3.57112 c 1.10127,-0.67153 1.46854,-3.59465 0.65259,-5.194042 -0.47489,-0.930867 -1.41185,-1.260039 -2.08328,-0.731893 -0.73108,0.575073 -1.16621,2.310036 -0.94192,3.75565 0.29545,1.904215 1.30081,2.823855 2.37261,2.170285 z m -14.82832,-8.005154 c 0.21308,-0.116492 0.53279,-0.459867 0.71047,-0.763049 0.2966,-0.506114 0.3236,-0.661628 0.32977,-1.899578 0.01,-1.938234 -0.40711,-3.098654 -1.59625,-4.444629 -0.60506,-0.684874 -2.94509,-2.483978 -4.48889,-3.451244 -1.64484,-1.030574 -5.40451,-2.9467973 -6.80439,-3.4680493 -5.00318,-1.862953 -13.0934,-2.166067 -17.94318,-0.672265 -2.54393,0.783568 -4.13679,1.506052 -5.83364,2.6460173 -2.64813,1.779054 -4.33486,3.924315 -5.12131,6.513521 -0.52644,1.733175 -0.21768,3.104327 0.99872,4.435272 0.63652,0.696446 1.22259,1.063842 1.98768,1.246011 0.25951,0.06179 8.36941,0.09995 18.91395,0.08899 17.35428,-0.01807 18.48284,-0.03186 18.84707,-0.230999 z"
       id="path1882"
       inkscape:connector-curvature="0" />
    <path
       style="opacity:1;fill:#ffff00;fill-opacity:1;stroke:#2d2d2d;stroke-width:0.30324307;stroke-linecap:round;stroke-linejoin:round;stroke-miterlimit:4;stroke-dasharray:none;stroke-dashoffset:0;stroke-opacity:1"
       d="m 9.4591514,36.086961 -0.39402,-0.35246 0.006,-1.60813 c 0.007,-1.89233 0.17885,-2.65715 0.9571596,-4.26245 2.17961,-4.495548 7.65942,-6.503027 12.71492,-4.657996 3.53948,1.291744 5.77826,4.331506 6.15973,8.363496 0.15421,1.63 -0.0365,2.33837 -0.72559,2.69469 -0.29398,0.15203 -0.44524,0.16292 -0.77077,0.0555 -0.62841,-0.20739 -0.81338,-0.6094 -0.93203,-2.02566 -0.24653,-2.94278 -1.52058,-5.0165 -3.82385,-6.22392 -1.16263,-0.609482 -2.15034,-0.840535 -3.63188,-0.849615 -1.51254,-0.0093 -2.2575,0.155333 -3.60412,0.79636 -0.75862,0.361132 -1.2092,0.680972 -1.80976,1.284655 -1.30392,1.31071 -1.86101,2.60742 -2.07443,4.82859 -0.13435,1.3983 -0.31455,1.85847 -0.83267,2.1264 -0.514,0.2658 -0.7951496,0.22734 -1.2387196,-0.16944 z"
       id="path1884"
       inkscape:connector-curvature="0" />
    <path
       style="opacity:1;fill:#ffff00;fill-opacity:1;stroke:#2d2d2d;stroke-width:0.30324307;stroke-linecap:round;stroke-linejoin:round;stroke-miterlimit:4;stroke-dasharray:none;stroke-dashoffset:0;stroke-opacity:1"
       d="m 43.065361,36.258641 c -0.48533,-0.33993 -0.68449,-1.14298 -0.59593,-2.40287 0.2987,-4.24951 2.70658,-7.473189 6.53126,-8.744115 2.04952,-0.681046 3.90501,-0.758519 6.05781,-0.252928 4.256,0.999529 7.08553,4.504763 7.35703,9.113933 0.0597,1.01359 0.0362,1.28731 -0.14263,1.66427 -0.25786,0.54341 -0.78235,0.8487 -1.27296,0.74095 -0.34739,-0.0763 -0.95594,-0.67182 -0.96373,-0.94309 -0.029,-1.01074 -0.27888,-2.74667 -0.48276,-3.35382 -1.71426,-5.105103 -8.57665,-6.590455 -12.49525,-2.70457 -1.28513,1.27438 -1.89874,2.69204 -2.05134,4.73929 -0.0918,1.2317 -0.23012,1.64924 -0.66855,2.01815 -0.41002,0.34501 -0.89121,0.39219 -1.27295,0.1248 z"
       id="path1886"
       inkscape:connector-curvature="0" />
    <path
       style="opacity:1;fill:#54c0ff;fill-opacity:1;stroke:#2d2d2d;stroke-width:0.30324307;stroke-linecap:round;stroke-linejoin:round;stroke-miterlimit:4;stroke-dasharray:none;stroke-dashoffset:0;stroke-opacity:1"
       d="m 13.540611,22.608288 c -0.75626,-0.233406 -1.82383,-1.278237 -2.29635,-2.247443 -0.30952,-0.63485 -0.33409,-0.782227 -0.28164,-1.689118 0.0452,-0.781662 0.15388,-1.231172 0.50948,-2.107531 1.41842,-3.495652 4.75921,-6.168959 9.7697,-7.8177433 2.78648,-0.916935 5.2727,-1.213319 9.23893,-1.101374 3.37951,0.09538 5.78955,0.457739 8.20428,1.233526 1.42948,0.459256 4.93269,2.1463903 6.96098,3.3523933 1.65341,0.983096 4.10157,2.792871 4.94538,3.655821 0.73769,0.754416 1.4312,2.088908 1.62061,3.118489 0.2804,1.524118 -0.0825,3.191696 -0.78186,3.592492 -0.19971,0.114465 -4.42548,0.152814 -18.77767,0.17043 -16.24103,0.01992 -18.5928,2.36e-4 -19.11184,-0.159942 z"
       id="path1888"
       inkscape:connector-curvature="0" />
    <path
       style="fill:#dddbe0;fill-opacity:1;stroke:#000000;stroke-width:0.32953775;stroke-linecap:butt;stroke-linejoin:miter;stroke-miterlimit:4;stroke-dasharray:none;stroke-opacity:1"
       d="m 10.384561,10.79951 -0.5637296,-0.639123 3.9713296,-2.9928663 0.45244,0.723906"
       id="path1906"
       inkscape:connector-curvature="0"
       sodipodi:nodetypes="cccc" />
    <path
       style="fill:#dddbe0;fill-opacity:1;stroke:#000000;stroke-width:0.32953775;stroke-linecap:butt;stroke-linejoin:miter;stroke-miterlimit:4;stroke-dasharray:none;stroke-opacity:1"
       d="m 10.040971,9.9460787 -2.2031596,-2.576001 3.7827896,-2.714854 1.92557,2.586126"
       id="path1908"
       inkscape:connector-curvature="0"
       sodipodi:nodetypes="cccc" />
    <path
       style="fill:none;stroke:#000000;stroke-width:0.11652722;stroke-linecap:butt;stroke-linejoin:miter;stroke-miterlimit:4;stroke-dasharray:none;stroke-opacity:1"
       d="m 16.811581,32.546541 4.12767,4.12768"
       id="path1931"
       inkscape:connector-curvature="0" />
    <path
       style="fill:none;stroke:#000000;stroke-width:0.11652722;stroke-linecap:butt;stroke-linejoin:miter;stroke-miterlimit:4;stroke-dasharray:none;stroke-opacity:1"
       d="m 20.992581,32.514541 -4.085,4.19167"
       id="path1939"
       inkscape:connector-curvature="0" />
    <path
       style="fill:none;stroke:#000000;stroke-width:0.11652722;stroke-linecap:butt;stroke-linejoin:miter;stroke-miterlimit:4;stroke-dasharray:none;stroke-opacity:1"
       d="m 50.323571,32.514541 4.13833,4.19167"
       id="path1941"
       inkscape:connector-curvature="0" />
    <path
       style="fill:none;stroke:#000000;stroke-width:0.11652722;stroke-linecap:butt;stroke-linejoin:miter;stroke-miterlimit:4;stroke-dasharray:none;stroke-opacity:1"
       d="m 50.366231,36.706211 4.24499,-4.19167"
       id="path1943"
       inkscape:connector-curvature="0" />
    <circle
       style="opacity:1;fill:#555555;fill-opacity:1;stroke:#2d2d2d;stroke-width:0.60113484;stroke-linecap:round;stroke-linejoin:round;stroke-miterlimit:4;stroke-dasharray:none;stroke-dashoffset:0;stroke-opacity:1"
       id="path1230-3"
       cx="87.529617"
       cy="36.052361"
       r="7.006444" />
    <circle
       style="opacity:1;fill:#8c8c8c;fill-opacity:1;stroke:#2d2d2d;stroke-width:0.60113484;stroke-linecap:round;stroke-linejoin:round;stroke-miterlimit:4;stroke-dasharray:none;stroke-dashoffset:0;stroke-opacity:1"
       id="path1778-67"
       cx="87.533058"
       cy="36.026649"
       r="2.9469566" />
    <path
       style="fill:none;stroke:#000000;stroke-width:0.23917331px;stroke-linecap:butt;stroke-linejoin:miter;stroke-opacity:1"
       d="m 80.241379,36.214944 c 0,-9.809164 14.586088,-9.845638 14.672858,-9e-6 -0.0521,2.486583 2.874402,2.514798 2.843612,0 0,-13.853208 -20.407889,-13.83776 -20.407889,0.01317 0.01146,2.643845 2.901545,2.407304 2.891419,-0.01317 z"
       id="path1802-5"
       inkscape:connector-curvature="0"
       sodipodi:nodetypes="cccccc" />
    <path
       style="fill:none;stroke:#000000;stroke-width:0.23917331px;stroke-linecap:butt;stroke-linejoin:miter;stroke-opacity:1"
       d="M 77.451942,36.26668 C 72.531379,36.847221 73.150649,26.508744 73.303257,26.481815 73.229967,3.3303343 105.97525,0.16751068 119.50096,13.317055 l 11.3963,6.587976 c 10.57225,4.112381 8.88458,17.42938 0.35694,16.361636"
       id="path1841-3"
       inkscape:connector-curvature="0"
       sodipodi:nodetypes="ccccc" />
    <circle
       style="opacity:1;fill:#555555;fill-opacity:1;stroke:#2d2d2d;stroke-width:0.60113484;stroke-linecap:round;stroke-linejoin:round;stroke-miterlimit:4;stroke-dasharray:none;stroke-dashoffset:0;stroke-opacity:1"
       id="path1230-2-5"
       cx="121.05238"
       cy="36.065506"
       r="7.006444" />
    <circle
       style="opacity:1;fill:#8c8c8c;fill-opacity:1;stroke:#2d2d2d;stroke-width:0.60113484;stroke-linecap:round;stroke-linejoin:round;stroke-miterlimit:4;stroke-dasharray:none;stroke-dashoffset:0;stroke-opacity:1"
       id="path1778-6-6"
       cx="121.0558"
       cy="36.039799"
       r="2.9469566" />
    <path
       style="fill:none;stroke:#000000;stroke-width:0.23917331px;stroke-linecap:butt;stroke-linejoin:miter;stroke-opacity:1"
       d="m 113.76413,36.22808 c 0,-9.809163 14.58609,-9.845638 14.67287,-1.1e-5 -0.0522,2.486586 2.87439,2.5148 2.8436,0 0,-13.853195 -20.40791,-13.837763 -20.40791,0.01317 0.0114,2.643846 2.90157,2.407307 2.89144,-0.01317 z"
       id="path1802-1-2"
       inkscape:connector-curvature="0"
       sodipodi:nodetypes="cccccc" />
    <path
       style="fill:none;stroke:#000000;stroke-width:0.23917331px;stroke-linecap:butt;stroke-linejoin:miter;stroke-opacity:1"
       d="M 97.791769,36.266667 H 110.86844"
       id="path1876-9"
       inkscape:connector-curvature="0" />
    <ellipse
       style="opacity:1;fill:#ffec74;fill-opacity:1;stroke:#2d2d2d;stroke-width:0.43372372;stroke-linecap:round;stroke-linejoin:round;stroke-miterlimit:4;stroke-dasharray:none;stroke-dashoffset:0;stroke-opacity:1"
       id="path1878-1"
       cx="134.37172"
       cy="29.420704"
       rx="1.4795341"
       ry="3.0669253" />
    <path
       style="fill:none;stroke:#000000;stroke-width:0.23917331px;stroke-linecap:butt;stroke-linejoin:miter;stroke-opacity:1"
       d="m 84.73703,24.510032 h 33.22801 c 2.35884,-0.09566 2.33254,-0.154409 2.98536,-1.280403 0.25342,-1.55397 0.54874,-4.210732 -2.15013,-6.514343 -2.23062,-1.844891 -4.39543,-3.30072 -6.95216,-4.50863 -3.38395,-1.882837 -5.74982,-2.6513177 -9.98455,-3.1147687 -3.391811,-0.375104 -8.475103,-0.256231 -11.360733,0.726064 -3.19084,0.9094507 -7.910034,2.9298247 -10.205439,7.2170187 -1.071176,2.326145 -1.782469,4.128187 0.467666,6.450021 1.180087,1.172727 2.843786,1.025041 3.971976,1.025041 z"
       id="path1880-2"
       inkscape:connector-curvature="0"
       sodipodi:nodetypes="cccccccccc" />
    <path
       style="opacity:1;fill:#ffff00;fill-opacity:1;stroke:#2d2d2d;stroke-width:0.30361894;stroke-linecap:round;stroke-linejoin:round;stroke-miterlimit:4;stroke-dasharray:none;stroke-dashoffset:0;stroke-opacity:1"
       d="M 76.252924,35.984241 C 75.581997,35.772772 74.661269,34.761458 74.287812,33.825807 73.631871,32.18241 73.42861,30.788678 73.43641,27.98812 c 0.0036,-1.395243 0.07196,-3.107595 0.151151,-3.805219 0.532354,-4.686855 2.179068,-8.203237 5.321923,-11.364444 3.5055,-3.5259747 8.179672,-5.7109767 14.337313,-6.7021637 1.63678,-0.263471 6.363112,-0.366936 8.335963,-0.18248 6.66089,0.622773 13.08444,3.215924 17.1338,6.9168287 0.69118,0.631704 10.96599,6.657962 12.87746,7.552739 2.94291,1.377602 5.04043,3.597128 5.96313,6.31003 0.99791,2.933944 0.45831,6.004454 -1.37697,7.83543 -1.01433,1.011953 -2.45346,1.593333 -3.94413,1.593333 h -0.74245 l -0.0788,-0.936208 c -0.24558,-2.918371 -1.52383,-5.531472 -3.49953,-7.153953 -1.0284,-0.844523 -2.64636,-1.65276 -4.04153,-2.018889 -0.95698,-0.251139 -1.46212,-0.308998 -2.74337,-0.314243 -2.00144,-0.0082 -3.24889,0.277397 -5.01324,1.147716 -1.11622,0.550611 -1.40611,0.764114 -2.41629,1.779608 -0.63135,0.634661 -1.33257,1.468963 -1.55827,1.853994 -0.62957,1.074009 -1.18638,2.856949 -1.35641,4.343369 l -0.14855,1.298606 h -6.36295 -6.362941 l -0.0716,-1.117404 c -0.28672,-4.473337 -3.239242,-7.962916 -7.658702,-9.051798 -1.41082,-0.347602 -3.667391,-0.371942 -5.036498,-0.05433 -4.087541,0.948246 -6.872892,3.749105 -7.696417,7.739296 -0.124306,0.602265 -0.226712,1.407604 -0.227592,1.789634 -8.88e-4,0.643012 -0.02177,0.693688 -0.273387,0.682273 -0.14949,-0.0067 -0.462061,-0.07231 -0.694601,-0.1456 z M 135.0362,32.408699 c 1.10263,-0.672362 1.47035,-3.599103 0.6534,-5.200478 -0.47548,-0.93202 -1.4136,-1.261601 -2.08587,-0.7328 -0.73198,0.575787 -1.16764,2.3129 -0.94309,3.760304 0.29583,1.906579 1.30243,2.827351 2.37556,2.172974 z m -14.84671,-8.015072 c 0.21335,-0.116637 0.53346,-0.460438 0.71136,-0.763997 0.29697,-0.50674 0.324,-0.662448 0.33018,-1.901932 0.009,-1.940636 -0.40761,-3.102494 -1.59822,-4.450137 -0.60582,-0.685721 -2.94874,-2.487057 -4.49446,-3.455521 -1.64688,-1.031851 -5.41121,-2.950449 -6.81283,-3.472347 -5.00937,-1.8652607 -13.109631,-2.1687507 -17.965413,-0.6730987 -2.54709,0.7845397 -4.141914,1.5079187 -5.840871,2.6492977 -2.651407,1.781259 -4.340236,3.929178 -5.12766,6.521593 -0.527087,1.735322 -0.217944,3.108174 0.999968,4.440768 0.637304,0.69731 1.224103,1.065161 1.990135,1.247555 0.25984,0.06187 8.379798,0.100069 18.937401,0.08911 17.37578,-0.0181 18.50574,-0.0319 18.87041,-0.231284 z"
       id="path1882-7"
       inkscape:connector-curvature="0" />
    <path
       style="opacity:1;fill:#ffff00;fill-opacity:1;stroke:#2d2d2d;stroke-width:0.30361894;stroke-linecap:round;stroke-linejoin:round;stroke-miterlimit:4;stroke-dasharray:none;stroke-dashoffset:0;stroke-opacity:1"
       d="m 78.036637,37.601288 -0.394511,-0.352895 0.0062,-1.610119 c 0.0071,-1.894678 0.179071,-2.660437 0.958349,-4.267731 2.182311,-4.501117 7.668912,-6.511084 12.730682,-4.663766 3.54386,1.293344 5.785412,4.336872 6.167362,8.373858 0.1544,1.632012 -0.0365,2.34126 -0.7265,2.698026 -0.29434,0.152213 -0.44578,0.163116 -0.77172,0.05556 -0.6292,-0.207655 -0.81439,-0.610162 -0.93319,-2.028177 -0.246832,-2.946412 -1.522452,-5.022706 -3.828592,-6.231621 -1.16407,-0.610239 -2.15299,-0.841576 -3.63637,-0.850668 -1.514416,-0.0093 -2.2603,0.155525 -3.608585,0.797346 -0.759574,0.36158 -1.2107,0.681815 -1.812008,1.286249 -1.305538,1.312332 -1.863317,2.610651 -2.076997,4.834569 -0.134521,1.400029 -0.314944,1.860767 -0.833698,2.129029 -0.514641,0.266125 -0.796146,0.227624 -1.240262,-0.16965 z"
       id="path1884-0"
       inkscape:connector-curvature="0" />
    <path
       style="opacity:1;fill:#ffff00;fill-opacity:1;stroke:#2d2d2d;stroke-width:0.30361894;stroke-linecap:round;stroke-linejoin:round;stroke-miterlimit:4;stroke-dasharray:none;stroke-dashoffset:0;stroke-opacity:1"
       d="m 111.68449,37.773185 c -0.48592,-0.340357 -0.68533,-1.144401 -0.59667,-2.405852 0.29908,-4.254771 2.70993,-7.482441 6.53936,-8.754942 2.05206,-0.68189 3.90984,-0.75946 6.06531,-0.253241 4.26128,1.000767 7.09432,4.510345 7.36615,9.125223 0.0598,1.014843 0.0363,1.288905 -0.14281,1.66633 -0.25818,0.544085 -0.78331,0.849751 -1.27453,0.741864 -0.34783,-0.07639 -0.95712,-0.672652 -0.96493,-0.944256 -0.0291,-1.011989 -0.27922,-2.750072 -0.48335,-3.357966 -1.71638,-5.111433 -8.58728,-6.598624 -12.51074,-2.707927 -1.28671,1.275966 -1.90108,2.695378 -2.05387,4.745163 -0.092,1.233224 -0.23041,1.651283 -0.66939,2.02065 -0.41052,0.345435 -0.89231,0.392669 -1.27453,0.124954 z"
       id="path1886-9"
       inkscape:connector-curvature="0" />
    <path
       style="opacity:1;fill:#54c0ff;fill-opacity:1;stroke:#2d2d2d;stroke-width:0.30361894;stroke-linecap:round;stroke-linejoin:round;stroke-miterlimit:4;stroke-dasharray:none;stroke-dashoffset:0;stroke-opacity:1"
       d="m 82.123156,24.10592 c -0.757194,-0.233696 -1.826087,-1.279821 -2.299199,-2.250229 -0.309905,-0.635636 -0.334504,-0.783196 -0.281985,-1.691212 0.04531,-0.782628 0.154064,-1.232697 0.510102,-2.110141 1.420178,-3.499984 4.765111,-6.176605 9.781813,-7.827432 2.78993,-0.9180707 5.279232,-1.2148207 9.250362,-1.1027387 3.383711,0.0955 5.796731,0.458305 8.214471,1.2350547 1.43125,0.459824 4.9388,2.149049 6.96961,3.356547 1.65544,0.984315 4.10664,2.796334 4.9515,3.660352 0.73861,0.755351 1.43297,2.091499 1.62262,3.122353 0.28075,1.526008 -0.0826,3.195653 -0.78283,3.596944 -0.19996,0.114609 -4.43097,0.153004 -18.80094,0.170642 -16.261161,0.01994 -18.615837,2.55e-4 -19.135524,-0.16014 z"
       id="path1888-3"
       inkscape:connector-curvature="0" />
    <path
       style="fill:#dddbe0;fill-opacity:1;stroke:#000000;stroke-width:0.32994619;stroke-linecap:butt;stroke-linejoin:miter;stroke-miterlimit:4;stroke-dasharray:none;stroke-opacity:1"
       d="m 78.963184,12.282507 -0.564416,-0.639914 3.976239,-2.9965747 0.45301,0.724802"
       id="path1906-6"
       inkscape:connector-curvature="0"
       sodipodi:nodetypes="cccc" />
    <path
       style="fill:#dddbe0;fill-opacity:1;stroke:#000000;stroke-width:0.32994619;stroke-linecap:butt;stroke-linejoin:miter;stroke-miterlimit:4;stroke-dasharray:none;stroke-opacity:1"
       d="m 78.619175,11.428019 -2.205888,-2.5791927 3.787477,-2.718219 1.927952,2.589331"
       id="path1908-0"
       inkscape:connector-curvature="0"
       sodipodi:nodetypes="cccc" />
    <circle
       style="opacity:1;fill:#555555;fill-opacity:1;stroke:#2d2d2d;stroke-width:0.60159838;stroke-linecap:round;stroke-linejoin:round;stroke-miterlimit:4;stroke-dasharray:none;stroke-dashoffset:0;stroke-opacity:1"
       id="path1230-6"
       cx="157.94525"
       cy="35.910175"
       r="7.0118484" />
    <circle
       style="opacity:1;fill:#8c8c8c;fill-opacity:1;stroke:#2d2d2d;stroke-width:0.60159838;stroke-linecap:round;stroke-linejoin:round;stroke-miterlimit:4;stroke-dasharray:none;stroke-dashoffset:0;stroke-opacity:1"
       id="path1778-2"
       cx="157.94867"
       cy="35.884441"
       r="2.9492297" />
    <path
       style="fill:none;stroke:#000000;stroke-width:0.23935777px;stroke-linecap:butt;stroke-linejoin:miter;stroke-opacity:1"
       d="m 150.65137,37.9781 c 0,-9.816731 14.59734,-9.853231 14.68418,-10e-6 -0.0522,2.488503 2.87661,2.516743 2.8458,0 0,-13.863896 -20.42363,-13.848429 -20.42363,0.01313 0.0115,2.645888 2.90378,2.409169 2.89365,-0.01313 z"
       id="path1802-6"
       inkscape:connector-curvature="0"
       sodipodi:nodetypes="cccccc" />
    <path
       style="fill:none;stroke:#000000;stroke-width:0.23935777px;stroke-linecap:butt;stroke-linejoin:miter;stroke-opacity:1"
       d="m 147.85978,38.029875 c -4.92436,0.580994 -4.30461,-9.765464 -4.15188,-9.79241 C 143.6346,5.0681293 176.40509,1.9028623 189.94124,15.06255 l 11.40508,6.593058 c 10.58041,4.115547 8.89145,17.442825 0.35723,16.374257"
       id="path1841-1"
       inkscape:connector-curvature="0"
       sodipodi:nodetypes="ccccc" />
    <circle
       style="opacity:1;fill:#555555;fill-opacity:1;stroke:#2d2d2d;stroke-width:0.60159838;stroke-linecap:round;stroke-linejoin:round;stroke-miterlimit:4;stroke-dasharray:none;stroke-dashoffset:0;stroke-opacity:1"
       id="path1230-2-8"
       cx="191.49385"
       cy="35.923336"
       r="7.0118484" />
    <circle
       style="opacity:1;fill:#8c8c8c;fill-opacity:1;stroke:#2d2d2d;stroke-width:0.60159838;stroke-linecap:round;stroke-linejoin:round;stroke-miterlimit:4;stroke-dasharray:none;stroke-dashoffset:0;stroke-opacity:1"
       id="path1778-6-7"
       cx="191.49727"
       cy="35.897602"
       r="2.9492297" />
    <path
       style="fill:none;stroke:#000000;stroke-width:0.23935777px;stroke-linecap:butt;stroke-linejoin:miter;stroke-opacity:1"
       d="m 184.19997,37.991247 c 0,-9.816731 14.59735,-9.853231 14.6842,-1e-5 -0.0522,2.488503 2.87661,2.516743 2.84579,0 0,-13.863886 -20.42364,-13.848439 -20.42364,0.01313 0.0115,2.645888 2.9038,2.409168 2.89365,-0.01313 z"
       id="path1802-1-9"
       inkscape:connector-curvature="0"
       sodipodi:nodetypes="cccccc" />
    <path
       style="fill:none;stroke:#000000;stroke-width:0.23935777px;stroke-linecap:butt;stroke-linejoin:miter;stroke-opacity:1"
       d="m 168.21529,36.124636 h 13.08677"
       id="path1876-2"
       inkscape:connector-curvature="0" />
    <ellipse
       style="opacity:1;fill:#ffec74;fill-opacity:1;stroke:#2d2d2d;stroke-width:0.43405822;stroke-linecap:round;stroke-linejoin:round;stroke-miterlimit:4;stroke-dasharray:none;stroke-dashoffset:0;stroke-opacity:1"
       id="path1878-0"
       cx="204.82347"
       cy="31.178614"
       rx="1.4806755"
       ry="3.0692909" />
    <path
       style="fill:none;stroke:#000000;stroke-width:0.23935777px;stroke-linecap:butt;stroke-linejoin:miter;stroke-opacity:1"
       d="m 155.15049,26.264162 h 33.25363 c 2.36068,-0.09573 2.33435,-0.154529 2.98768,-1.281398 0.25361,-1.555165 0.54916,-4.21398 -2.15179,-6.519368 -2.23235,-1.846304 -4.39882,-3.303266 -6.95753,-4.512105 -3.38656,-1.884289 -5.75426,-2.653362 -9.99226,-3.117171 -3.39442,-0.37539 -8.48163,-0.256431 -11.36949,0.726632 -3.19329,0.910148 -7.91613,2.932082 -10.2133,7.222579 -1.07201,2.327936 -1.78385,4.131368 0.46802,6.454992 1.18099,1.173632 2.84598,1.025839 3.97504,1.025839 z"
       id="path1880-23"
       inkscape:connector-curvature="0"
       sodipodi:nodetypes="cccccccccc" />
    <path
       style="opacity:1;fill:#ffff00;fill-opacity:1;stroke:#2d2d2d;stroke-width:0.30385309;stroke-linecap:round;stroke-linejoin:round;stroke-miterlimit:4;stroke-dasharray:none;stroke-dashoffset:0;stroke-opacity:1"
       d="m 146.65983,37.747216 c -0.67143,-0.211632 -1.59288,-1.22373 -1.96662,-2.160097 -0.65644,-1.644666 -0.85987,-3.039475 -0.85205,-5.842192 0.004,-1.396314 0.072,-3.109984 0.15126,-3.808155 0.53277,-4.690466 2.18075,-8.209562 5.32602,-11.373208 3.50821,-3.528688 8.186,-5.7153857 14.34838,-6.7073317 1.63805,-0.263675 6.36803,-0.367215 8.34239,-0.182616 6.66603,0.623254 13.09452,3.2184017 17.14702,6.9221547 0.69172,0.632194 10.97445,6.663097 12.88739,7.558565 2.94519,1.378672 5.04431,3.599906 5.96774,6.314904 0.99867,2.936203 0.45865,6.009083 -1.37803,7.841473 -1.01511,1.01273 -2.45537,1.594559 -3.94718,1.594559 h -0.74302 l -0.0788,-0.936932 c -0.24576,-2.920622 -1.52501,-5.53574 -3.50224,-7.159468 -1.02918,-0.845178 -2.6484,-1.654038 -4.04463,-2.020449 -0.95773,-0.251333 -1.46326,-0.309232 -2.74549,-0.314483 -2.00298,-0.0086 -3.25139,0.277609 -5.0171,1.148602 -1.1171,0.55103 -1.40721,0.764704 -2.41817,1.78098 -0.63183,0.635146 -1.33359,1.470099 -1.55946,1.855426 -0.63006,1.074836 -1.18729,2.85915 -1.35746,4.346718 l -0.14867,1.299606 h -6.36785 -6.36785 l -0.0717,-1.118264 c -0.28695,-4.476793 -3.24175,-7.969057 -7.66463,-9.058783 -1.4119,-0.347869 -3.67021,-0.372228 -5.04038,-0.05433 -4.09069,0.948977 -6.87819,3.751992 -7.70235,7.745264 -0.1244,0.602728 -0.22689,1.408694 -0.22777,1.791012 -0.001,0.643512 -0.0218,0.694223 -0.2736,0.682801 -0.1496,-0.0067 -0.46242,-0.07235 -0.69514,-0.145714 z m 58.82863,-3.578297 c 1.10348,-0.672882 1.47149,-3.601879 0.6539,-5.204488 -0.47585,-0.932744 -1.41469,-1.262578 -2.08747,-0.733368 -0.73255,0.576233 -1.16856,2.314684 -0.94382,3.763203 0.29605,1.908055 1.30343,2.82953 2.37739,2.174653 z M 190.6303,26.147666 c 0.21352,-0.116726 0.53387,-0.4608 0.71191,-0.764588 0.29719,-0.507132 0.32424,-0.662955 0.33043,-1.903397 0.01,-1.94214 -0.40792,-3.104887 -1.59946,-4.453574 -0.60628,-0.68625 -2.95101,-2.488973 -4.49792,-3.458188 -1.64815,-1.032643 -5.41539,-2.952724 -6.81808,-3.475025 -5.01325,-1.866696 -13.11974,-2.1704167 -17.97927,-0.673611 -2.54906,0.785143 -4.14511,1.509082 -5.84538,2.651341 -2.65346,1.782627 -4.34358,3.932202 -5.13161,6.526622 -0.5275,1.736659 -0.21812,3.110568 1.00073,4.444192 0.6378,0.697845 1.22505,1.065981 1.99168,1.248521 0.26003,0.0619 8.38625,0.100148 18.952,0.08921 17.38919,-0.01811 18.52002,-0.03191 18.88497,-0.231459 z"
       id="path1882-75"
       inkscape:connector-curvature="0" />
    <path
       style="opacity:1;fill:#ffff00;fill-opacity:1;stroke:#2d2d2d;stroke-width:0.30385309;stroke-linecap:round;stroke-linejoin:round;stroke-miterlimit:4;stroke-dasharray:none;stroke-dashoffset:0;stroke-opacity:1"
       d="m 148.44493,39.365511 -0.39481,-0.353168 0.006,-1.611357 c 0.007,-1.896143 0.1792,-2.662495 0.95908,-4.271025 2.18399,-4.504592 7.67483,-6.51611 12.7405,-4.667362 3.5466,1.294344 5.78988,4.340221 6.17212,8.380314 0.15452,1.633272 -0.0366,2.343067 -0.72705,2.700106 -0.29458,0.152335 -0.44614,0.16325 -0.77232,0.05558 -0.62968,-0.207819 -0.81502,-0.610634 -0.93391,-2.029745 -0.24702,-2.948679 -1.52364,-5.026576 -3.83154,-6.236431 -1.16497,-0.61071 -2.15467,-0.842226 -3.63918,-0.85132 -1.51559,-0.0096 -2.26204,0.155641 -3.61137,0.797964 -0.76016,0.361859 -1.21164,0.682341 -1.81341,1.287234 -1.30654,1.313347 -1.86475,2.612665 -2.0786,4.838298 -0.13462,1.401114 -0.31518,1.862211 -0.83435,2.130678 -0.51503,0.26633 -0.79675,0.227798 -1.24121,-0.169785 z"
       id="path1884-9"
       inkscape:connector-curvature="0" />
    <path
       style="opacity:1;fill:#ffff00;fill-opacity:1;stroke:#2d2d2d;stroke-width:0.30385309;stroke-linecap:round;stroke-linejoin:round;stroke-miterlimit:4;stroke-dasharray:none;stroke-dashoffset:0;stroke-opacity:1"
       d="m 182.11874,39.537538 c -0.48631,-0.340614 -0.68587,-1.145277 -0.59713,-2.407702 0.29931,-4.25805 2.71202,-7.488219 6.5444,-8.761693 2.05364,-0.682417 3.91286,-0.760046 6.06999,-0.253441 4.26457,1.001537 7.09979,4.513829 7.37183,9.132262 0.0598,1.015625 0.0363,1.289899 -0.14291,1.667617 -0.25838,0.544504 -0.78393,0.85041 -1.27552,0.742433 -0.34809,-0.07647 -0.95787,-0.67317 -0.96567,-0.944981 -0.0291,-1.012769 -0.27944,-2.752198 -0.48373,-3.36056 -1.71771,-5.115369 -8.59391,-6.603714 -12.52039,-2.710015 -1.28771,1.276952 -1.90255,2.697462 -2.05546,4.748824 -0.092,1.234175 -0.23059,1.652553 -0.6699,2.022212 -0.41085,0.345703 -0.893,0.392974 -1.27551,0.125044 z"
       id="path1886-2"
       inkscape:connector-curvature="0" />
    <path
       style="opacity:1;fill:#54c0ff;fill-opacity:1;stroke:#2d2d2d;stroke-width:0.30385309;stroke-linecap:round;stroke-linejoin:round;stroke-miterlimit:4;stroke-dasharray:none;stroke-dashoffset:0;stroke-opacity:1"
       d="m 152.5346,25.859737 c -0.75778,-0.233874 -1.8275,-1.280814 -2.30098,-2.251965 -0.31014,-0.636124 -0.33476,-0.783802 -0.2822,-1.692513 0.0453,-0.783236 0.15419,-1.233658 0.5105,-2.111771 1.42127,-3.50269 4.76878,-6.18137 9.78936,-7.833472 2.79208,-0.918782 5.2833,-1.215758 9.25751,-1.103593 3.38631,0.09554 5.8012,0.458663 8.22079,1.236015 1.43236,0.460177 4.94262,2.150706 6.97498,3.359133 1.65673,0.985075 4.10982,2.798491 4.95533,3.66317 0.73918,0.755935 1.43407,2.093114 1.62387,3.12477 0.28096,1.527183 -0.0827,3.198115 -0.78343,3.599714 -0.20012,0.114694 -4.43439,0.153121 -18.81545,0.170772 -16.2737,0.01993 -18.6302,2.59e-4 -19.15028,-0.16026 z"
       id="path1888-2"
       inkscape:connector-curvature="0" />
    <path
       style="fill:#dddbe0;fill-opacity:1;stroke:#000000;stroke-width:0.33020064;stroke-linecap:butt;stroke-linejoin:miter;stroke-miterlimit:4;stroke-dasharray:none;stroke-opacity:1"
       d="m 149.37219,14.027205 -0.56485,-0.640407 3.97931,-2.998893 0.45335,0.725367"
       id="path1906-8"
       inkscape:connector-curvature="0"
       sodipodi:nodetypes="cccc" />
    <path
       style="fill:#dddbe0;fill-opacity:1;stroke:#000000;stroke-width:0.33020064;stroke-linecap:butt;stroke-linejoin:miter;stroke-miterlimit:4;stroke-dasharray:none;stroke-opacity:1"
       d="m 149.02791,13.172051 -2.20758,-2.581176 3.79039,-2.7203157 1.92945,2.5913237"
       id="path1908-9"
       inkscape:connector-curvature="0"
       sodipodi:nodetypes="cccc" />
    <path
       style="fill:none;stroke:#000000;stroke-width:0.11676162;stroke-linecap:butt;stroke-linejoin:miter;stroke-miterlimit:4;stroke-dasharray:none;stroke-opacity:1"
       d="m 155.81215,33.912755 4.13597,4.135976"
       id="path1931-7"
       inkscape:connector-curvature="0" />
    <path
       style="fill:none;stroke:#000000;stroke-width:0.11676162;stroke-linecap:butt;stroke-linejoin:miter;stroke-miterlimit:4;stroke-dasharray:none;stroke-opacity:1"
       d="m 160.00156,33.880691 -4.09323,4.200094"
       id="path1939-3"
       inkscape:connector-curvature="0" />
    <path
       style="fill:none;stroke:#000000;stroke-width:0.11676162;stroke-linecap:butt;stroke-linejoin:miter;stroke-miterlimit:4;stroke-dasharray:none;stroke-opacity:1"
       d="m 189.39155,33.880691 4.14666,4.200094"
       id="path1941-6"
       inkscape:connector-curvature="0" />
    <path
       style="fill:none;stroke:#000000;stroke-width:0.11676162;stroke-linecap:butt;stroke-linejoin:miter;stroke-miterlimit:4;stroke-dasharray:none;stroke-opacity:1"
       d="m 189.4343,38.080785 4.25353,-4.200094"
       id="path1943-1"
       inkscape:connector-curvature="0" />
    <path
       style="fill:#ff3200;stroke:#000000;stroke-width:0.23887724px;stroke-linecap:butt;stroke-linejoin:miter;stroke-opacity:1;fill-opacity:1"
       d="m 13.418868,75.566657 c 0,-9.79703 14.56804,-9.833457 14.65471,-1e-5 -0.0521,2.48351 2.87084,2.51169 2.84009,0 0,-13.836067 -20.38264,-13.820638 -20.38264,0.0132 0.0114,2.64058 2.89796,2.40433 2.88784,-0.0132 z"
       id="path1802-67"
       inkscape:connector-curvature="0"
       sodipodi:nodetypes="cccccc" />
    <path
       style="fill:none;stroke:#000000;stroke-width:0.23887724px;stroke-linecap:butt;stroke-linejoin:miter;stroke-opacity:1"
       d="m 46.900119,75.579777 c 0,-9.797029 14.568051,-9.833459 14.65472,-1e-5 -0.0521,2.48351 2.87083,2.51169 2.84008,0 0,-13.836057 -20.38264,-13.820643 -20.38264,0.0132 0.01151,2.64058 2.897971,2.40433 2.88784,-0.0132 z"
       id="path1802-1-3"
       inkscape:connector-curvature="0"
       sodipodi:nodetypes="cccccc" />
    <path
       style="opacity:1;fill:#ff3200;fill-opacity:1;stroke:#2d2d2d;stroke-width:0.30324307;stroke-linecap:round;stroke-linejoin:round;stroke-miterlimit:4;stroke-dasharray:none;stroke-dashoffset:0;stroke-opacity:1"
       d="m 11.216859,76.951287 -0.39402,-0.35246 0.006,-1.60813 c 0.007,-1.89233 0.17885,-2.65715 0.957159,-4.26245 2.17961,-4.495546 7.65942,-6.503027 12.71492,-4.657996 3.53948,1.291736 5.77826,4.331506 6.15973,8.363496 0.15421,1.63 -0.0365,2.33837 -0.72559,2.69469 -0.29398,0.15203 -0.44524,0.16292 -0.77077,0.0555 -0.628409,-0.20739 -0.81338,-0.6094 -0.93203,-2.02566 -0.24653,-2.94278 -1.52058,-5.0165 -3.82385,-6.22392 -1.16263,-0.60949 -2.15034,-0.84054 -3.63188,-0.84962 -1.51254,-0.009 -2.257499,0.15533 -3.60412,0.79636 -0.75862,0.36113 -1.2092,0.68097 -1.80976,1.28466 -1.303919,1.31071 -1.861009,2.60742 -2.07443,4.82859 -0.13435,1.3983 -0.31455,1.85847 -0.832669,2.1264 -0.514,0.2658 -0.79515,0.22734 -1.23872,-0.16944 z"
       id="path1884-6"
       inkscape:connector-curvature="0" />
    <path
       style="opacity:1;fill:#ff3200;fill-opacity:1;stroke:#2d2d2d;stroke-width:0.30324307;stroke-linecap:round;stroke-linejoin:round;stroke-miterlimit:4;stroke-dasharray:none;stroke-dashoffset:0;stroke-opacity:1"
       d="m 44.823068,77.122967 c -0.48533,-0.33993 -0.68449,-1.14298 -0.595929,-2.40287 0.298699,-4.24951 2.706579,-7.47319 6.531261,-8.744116 2.049518,-0.681045 3.905009,-0.758518 6.05781,-0.252927 4.255997,0.999523 7.085528,4.504763 7.357028,9.113933 0.0597,1.01359 0.0362,1.28731 -0.142629,1.66427 -0.25786,0.54341 -0.782349,0.8487 -1.272961,0.74095 -0.34739,-0.0763 -0.955939,-0.67182 -0.963729,-0.94309 -0.029,-1.01074 -0.278881,-2.74667 -0.482761,-3.35382 -1.714259,-5.10511 -8.576649,-6.590456 -12.49525,-2.70457 -1.285128,1.27438 -1.89874,2.69204 -2.051341,4.73929 -0.0918,1.2317 -0.230118,1.64924 -0.668549,2.01815 -0.410019,0.34501 -0.891209,0.39219 -1.27295,0.1248 z"
       id="path1886-29"
       inkscape:connector-curvature="0" />
    <path
       style="opacity:1;fill:#ff3200;fill-opacity:1;stroke:#2d2d2d;stroke-width:0.30324307;stroke-linecap:round;stroke-linejoin:round;stroke-miterlimit:4;stroke-dasharray:none;stroke-dashoffset:0;stroke-opacity:1"
       d="m 9.4600436,75.485137 c -0.670089,-0.2112 -1.589679,-1.22127 -1.962669,-2.15576 -0.655131,-1.64137 -0.858151,-3.03338 -0.850351,-5.83046 0.004,-1.393523 0.0718,-3.103753 0.15096,-3.800516 0.5317,-4.681055 2.176371,-8.193083 5.3153304,-11.350376 3.501174,-3.52161 8.169563,-5.703908 14.319583,-6.693869 1.63476,-0.263145 6.355241,-0.366481 8.325641,-0.182254 6.65264,0.622003 13.06823,3.211944 17.1126,6.908268 0.69032,0.630921 10.95241,6.64972 12.86151,7.543391 2.93927,1.375896 5.03419,3.592675 5.95576,6.30222 0.99666,2.930316 0.45773,5.997016 -1.37527,7.825726 -1.01307,1.01071 -2.45043,1.59137 -3.93925,1.59137 h -0.74153 l -0.0787,-0.93505 c -0.24526,-2.91476 -1.52194,-5.52463 -3.4952,-7.1451 -1.02712,-0.84348 -2.64309,-1.650717 -4.03652,-2.016393 -0.9558,-0.250827 -1.46032,-0.308615 -2.73998,-0.313854 -1.99896,-0.0082 -3.24485,0.277054 -5.00703,1.146296 -1.11485,0.549931 -1.40438,0.763171 -2.41331,1.777401 -0.63056,0.63388 -1.33091,1.46715 -1.55633,1.8517 -0.62879,1.07268 -1.18491,2.85342 -1.35473,4.338 l -0.14837,1.297 h -6.35507 -6.35507 l -0.0715,-1.11602 c -0.28636,-4.46781 -3.235241,-7.953065 -7.649241,-9.0406 -1.40906,-0.347171 -3.66284,-0.371482 -5.03025,-0.05427 -4.082493,0.947072 -6.864383,3.74446 -7.686903,7.72971 -0.124141,0.60153 -0.22643,1.40587 -0.227301,1.78743 -10e-4,0.64222 -0.0217,0.69283 -0.273049,0.68143 -0.149309,-0.007 -0.4615004,-0.0722 -0.6937494,-0.14542 z m 58.7105244,-3.57112 c 1.10127,-0.67153 1.46854,-3.59465 0.65259,-5.19404 -0.47489,-0.930867 -1.41185,-1.260039 -2.08328,-0.731893 -0.73108,0.575073 -1.16621,2.310033 -0.94192,3.755653 0.29545,1.90421 1.30081,2.82385 2.37261,2.17028 z m -14.82832,-8.005152 c 0.21308,-0.116492 0.53278,-0.459867 0.71047,-0.763049 0.2966,-0.506114 0.3236,-0.661628 0.32977,-1.899578 0.01,-1.938234 -0.40711,-3.098654 -1.59625,-4.444629 -0.60506,-0.684874 -2.94509,-2.483977 -4.48889,-3.451243 -1.64484,-1.030574 -5.40451,-2.946797 -6.80439,-3.468049 -5.00319,-1.862953 -13.093401,-2.166067 -17.943181,-0.672265 -2.54393,0.783568 -4.13679,1.506052 -5.83364,2.646017 -2.648129,1.779054 -4.334864,3.924314 -5.121313,6.51352 -0.526441,1.733175 -0.217681,3.104327 0.99872,4.435272 0.63652,0.696446 1.22259,1.063842 1.987684,1.246011 0.259509,0.06179 8.369409,0.09995 18.91395,0.08899 17.35428,-0.01807 18.48284,-0.03186 18.84707,-0.230999 z"
       id="path1882-9"
       inkscape:connector-curvature="0" />
    <circle
       style="opacity:1;fill:#555555;fill-opacity:1;stroke:#2d2d2d;stroke-width:0.60159838;stroke-linecap:round;stroke-linejoin:round;stroke-miterlimit:4;stroke-dasharray:none;stroke-dashoffset:0;stroke-opacity:1"
       id="path1230-6-3"
       cx="97.602531"
       cy="75.883492"
       r="7.0118484" />
    <circle
       style="opacity:1;fill:#8c8c8c;fill-opacity:1;stroke:#2d2d2d;stroke-width:0.60159838;stroke-linecap:round;stroke-linejoin:round;stroke-miterlimit:4;stroke-dasharray:none;stroke-dashoffset:0;stroke-opacity:1"
       id="path1778-2-6"
       cx="97.605949"
       cy="75.857758"
       r="2.9492297" />
    <path
       style="fill:none;stroke:#000000;stroke-width:0.23935777px;stroke-linecap:butt;stroke-linejoin:miter;stroke-opacity:1"
       d="m 90.308652,77.951422 c 0,-9.816732 14.597338,-9.853232 14.684178,-1.1e-5 -0.0522,2.488504 2.87661,2.516743 2.8458,0 0,-13.863896 -20.423628,-13.848429 -20.423628,0.01312 0.0115,2.645886 2.90378,2.409168 2.89365,-0.01312 z"
       id="path1802-6-0"
       inkscape:connector-curvature="0"
       sodipodi:nodetypes="cccccc" />
    <path
       style="fill:none;stroke:#000000;stroke-width:0.23935777px;stroke-linecap:butt;stroke-linejoin:miter;stroke-opacity:1"
       d="m 87.517062,78.003196 c -4.92436,0.580995 -4.30461,-9.765464 -4.15188,-9.79241 -0.0733,-23.169336 32.697188,-26.334603 46.233338,-13.174915 l 11.40508,6.593058 c 10.58041,4.115547 8.89145,17.442826 0.35723,16.374259"
       id="path1841-1-6"
       inkscape:connector-curvature="0"
       sodipodi:nodetypes="ccccc" />
    <circle
       style="opacity:1;fill:#555555;fill-opacity:1;stroke:#2d2d2d;stroke-width:0.60159838;stroke-linecap:round;stroke-linejoin:round;stroke-miterlimit:4;stroke-dasharray:none;stroke-dashoffset:0;stroke-opacity:1"
       id="path1230-2-8-2"
       cx="131.15114"
       cy="75.896652"
       r="7.0118484" />
    <circle
       style="opacity:1;fill:#8c8c8c;fill-opacity:1;stroke:#2d2d2d;stroke-width:0.60159838;stroke-linecap:round;stroke-linejoin:round;stroke-miterlimit:4;stroke-dasharray:none;stroke-dashoffset:0;stroke-opacity:1"
       id="path1778-6-7-6"
       cx="131.15456"
       cy="75.870918"
       r="2.9492297" />
    <path
       style="fill:none;stroke:#000000;stroke-width:0.23935777px;stroke-linecap:butt;stroke-linejoin:miter;stroke-opacity:1"
       d="m 123.85725,77.964569 c 0,-9.816732 14.59735,-9.853232 14.6842,-1.1e-5 -0.0522,2.488505 2.87661,2.516744 2.84579,0 0,-13.863886 -20.42364,-13.848439 -20.42364,0.01312 0.0115,2.645889 2.9038,2.409169 2.89365,-0.01312 z"
       id="path1802-1-9-1"
       inkscape:connector-curvature="0"
       sodipodi:nodetypes="cccccc" />
    <path
       style="fill:none;stroke:#000000;stroke-width:0.23935777px;stroke-linecap:butt;stroke-linejoin:miter;stroke-opacity:1"
       d="m 107.87257,76.097957 h 13.08677"
       id="path1876-2-8"
       inkscape:connector-curvature="0" />
    <ellipse
       style="opacity:1;fill:#ffec74;fill-opacity:1;stroke:#2d2d2d;stroke-width:0.43405822;stroke-linecap:round;stroke-linejoin:round;stroke-miterlimit:4;stroke-dasharray:none;stroke-dashoffset:0;stroke-opacity:1"
       id="path1878-0-7"
       cx="144.48076"
       cy="71.151932"
       rx="1.4806755"
       ry="3.0692909" />
    <path
       style="fill:none;stroke:#000000;stroke-width:0.23935777px;stroke-linecap:butt;stroke-linejoin:miter;stroke-opacity:1"
       d="M 94.807772,66.237483 H 128.0614 c 2.36068,-0.09573 2.33435,-0.154529 2.98768,-1.281398 0.25361,-1.555165 0.54916,-4.21398 -2.15179,-6.519368 -2.23235,-1.846304 -4.39882,-3.303266 -6.95753,-4.512105 -3.38656,-1.884289 -5.75426,-2.653362 -9.99226,-3.117171 -3.39442,-0.375389 -8.48163,-0.256431 -11.36949,0.726632 -3.193288,0.910148 -7.916128,2.932082 -10.213298,7.222579 -1.07201,2.327936 -1.78385,4.131368 0.46802,6.454992 1.18099,1.173632 2.84598,1.025839 3.97504,1.025839 z"
       id="path1880-23-9"
       inkscape:connector-curvature="0"
       sodipodi:nodetypes="cccccccccc" />
    <path
       style="opacity:1;fill:#ffff00;fill-opacity:1;stroke:#2d2d2d;stroke-width:0.30385309;stroke-linecap:round;stroke-linejoin:round;stroke-miterlimit:4;stroke-dasharray:none;stroke-dashoffset:0;stroke-opacity:1"
       d="m 86.317112,77.720538 c -0.67143,-0.211632 -1.59288,-1.223732 -1.96662,-2.160098 -0.65644,-1.644665 -0.85987,-3.039475 -0.85205,-5.842192 0.004,-1.396314 0.072,-3.109984 0.15126,-3.808155 0.53277,-4.690466 2.18075,-8.209562 5.32602,-11.373208 3.50821,-3.528688 8.186,-5.715385 14.348378,-6.707331 1.63805,-0.263675 6.36803,-0.367215 8.34239,-0.182616 6.66603,0.623254 13.09452,3.218401 17.14702,6.922154 0.69172,0.632194 10.97445,6.663097 12.88739,7.558565 2.94519,1.378672 5.04431,3.599906 5.96774,6.314904 0.99867,2.936203 0.45865,6.009082 -1.37803,7.841473 -1.01511,1.012729 -2.45537,1.594559 -3.94718,1.594559 h -0.74302 l -0.0788,-0.936932 c -0.24576,-2.920622 -1.52501,-5.53574 -3.50224,-7.159468 -1.02918,-0.845178 -2.6484,-1.654038 -4.04463,-2.020449 -0.95773,-0.251333 -1.46326,-0.309232 -2.74549,-0.314483 -2.00298,-0.0086 -3.25139,0.277609 -5.0171,1.148602 -1.1171,0.55103 -1.40721,0.764704 -2.41817,1.78098 -0.63183,0.635146 -1.33359,1.470099 -1.55946,1.855426 -0.63006,1.074836 -1.18729,2.85915 -1.35746,4.346719 l -0.14867,1.299605 h -6.36785 -6.36785 l -0.0717,-1.118264 c -0.28695,-4.476793 -3.24175,-7.969057 -7.66463,-9.058783 -1.411898,-0.347869 -3.670208,-0.372228 -5.040378,-0.05433 -4.09069,0.948977 -6.87819,3.751992 -7.70235,7.745264 -0.1244,0.602729 -0.22689,1.408695 -0.22777,1.791013 -0.001,0.643511 -0.0218,0.694221 -0.2736,0.682799 -0.1496,-0.0067 -0.46242,-0.07235 -0.69514,-0.145714 z m 58.828628,-3.578299 c 1.10348,-0.672881 1.47149,-3.601878 0.6539,-5.204487 -0.47585,-0.932744 -1.41469,-1.262578 -2.08747,-0.733368 -0.73255,0.576233 -1.16856,2.314684 -0.94382,3.763203 0.29605,1.908056 1.30343,2.829531 2.37739,2.174652 z m -14.85816,-8.021252 c 0.21352,-0.116726 0.53387,-0.4608 0.71191,-0.764588 0.29719,-0.507132 0.32424,-0.662955 0.33043,-1.903397 0.01,-1.94214 -0.40792,-3.104887 -1.59946,-4.453574 -0.60628,-0.68625 -2.95101,-2.488973 -4.49792,-3.458188 -1.64815,-1.032643 -5.41539,-2.952724 -6.81808,-3.475025 -5.01325,-1.866696 -13.11974,-2.170416 -17.97927,-0.673611 -2.549058,0.785143 -4.145108,1.509082 -5.845378,2.651341 -2.65346,1.782627 -4.34358,3.932202 -5.13161,6.526622 -0.5275,1.736659 -0.21812,3.110568 1.00073,4.444192 0.6378,0.697845 1.22505,1.065981 1.99168,1.248521 0.26003,0.0619 8.386248,0.100148 18.951998,0.08921 17.38919,-0.01811 18.52002,-0.03191 18.88497,-0.231459 z"
       id="path1882-75-2"
       inkscape:connector-curvature="0" />
    <path
       style="opacity:1;fill:#ffff00;fill-opacity:1;stroke:#2d2d2d;stroke-width:0.30385309;stroke-linecap:round;stroke-linejoin:round;stroke-miterlimit:4;stroke-dasharray:none;stroke-dashoffset:0;stroke-opacity:1"
       d="m 88.102212,79.338833 -0.39481,-0.353168 0.006,-1.611358 c 0.007,-1.896144 0.1792,-2.662494 0.95908,-4.271025 2.18399,-4.504592 7.67483,-6.51611 12.740498,-4.667362 3.5466,1.294344 5.78988,4.340221 6.17212,8.380315 0.15452,1.63327 -0.0366,2.343065 -0.72705,2.700105 -0.29458,0.152336 -0.44614,0.16325 -0.77232,0.05558 -0.62968,-0.20782 -0.81502,-0.610635 -0.93391,-2.029746 -0.24702,-2.948678 -1.52364,-5.026576 -3.83154,-6.236431 -1.16497,-0.61071 -2.154669,-0.842226 -3.639179,-0.85132 -1.51559,-0.0096 -2.26204,0.155641 -3.61137,0.797964 -0.76016,0.361859 -1.21164,0.682341 -1.81341,1.287234 -1.30654,1.313348 -1.86475,2.612664 -2.0786,4.8383 -0.13462,1.401111 -0.31518,1.862209 -0.83435,2.130676 -0.51503,0.26633 -0.79675,0.227798 -1.24121,-0.169786 z"
       id="path1884-9-0"
       inkscape:connector-curvature="0" />
    <path
       style="opacity:1;fill:#ffff00;fill-opacity:1;stroke:#2d2d2d;stroke-width:0.30385309;stroke-linecap:round;stroke-linejoin:round;stroke-miterlimit:4;stroke-dasharray:none;stroke-dashoffset:0;stroke-opacity:1"
       d="m 121.77602,79.51086 c -0.48631,-0.340614 -0.68587,-1.145278 -0.59713,-2.407703 0.29931,-4.25805 2.71202,-7.488219 6.5444,-8.761693 2.05364,-0.682417 3.91286,-0.760046 6.06999,-0.253441 4.26457,1.001537 7.09979,4.513829 7.37183,9.132262 0.0598,1.015625 0.0363,1.2899 -0.14291,1.667616 -0.25838,0.544505 -0.78393,0.850411 -1.27552,0.742434 -0.34809,-0.07647 -0.95787,-0.673168 -0.96567,-0.94498 -0.0291,-1.01277 -0.27944,-2.752199 -0.48373,-3.36056 -1.71771,-5.11537 -8.59391,-6.603715 -12.52039,-2.710016 -1.28771,1.276953 -1.90255,2.697461 -2.05546,4.748823 -0.092,1.234176 -0.23059,1.652553 -0.6699,2.022213 -0.41085,0.345702 -0.893,0.392975 -1.27551,0.125045 z"
       id="path1886-2-2"
       inkscape:connector-curvature="0" />
    <path
       style="opacity:1;fill:#54c0ff;fill-opacity:1;stroke:#2d2d2d;stroke-width:0.30385309;stroke-linecap:round;stroke-linejoin:round;stroke-miterlimit:4;stroke-dasharray:none;stroke-dashoffset:0;stroke-opacity:1"
       d="m 92.191882,65.833058 c -0.75778,-0.233874 -1.8275,-1.280814 -2.30098,-2.251965 -0.31014,-0.636124 -0.33476,-0.783802 -0.2822,-1.692513 0.0453,-0.783236 0.15419,-1.233658 0.5105,-2.111771 1.42127,-3.50269 4.76878,-6.18137 9.78936,-7.833472 2.792078,-0.918782 5.283298,-1.215758 9.257508,-1.103593 3.38631,0.09554 5.8012,0.458663 8.22079,1.236015 1.43236,0.460177 4.94262,2.150706 6.97498,3.359133 1.65673,0.985075 4.10982,2.798491 4.95533,3.66317 0.73918,0.755935 1.43407,2.093114 1.62387,3.12477 0.28096,1.527183 -0.0827,3.198115 -0.78343,3.599714 -0.20012,0.114694 -4.43439,0.153121 -18.81545,0.170772 -16.273698,0.01993 -18.630198,2.59e-4 -19.150278,-0.16026 z"
       id="path1888-2-3"
       inkscape:connector-curvature="0" />
    <path
       style="fill:#dddbe0;fill-opacity:1;stroke:#000000;stroke-width:0.33020064;stroke-linecap:butt;stroke-linejoin:miter;stroke-miterlimit:4;stroke-dasharray:none;stroke-opacity:1"
       d="m 89.029472,54.000526 -0.56485,-0.640407 3.97931,-2.998892 0.45335,0.725366"
       id="path1906-8-7"
       inkscape:connector-curvature="0"
       sodipodi:nodetypes="cccc" />
    <path
       style="fill:#dddbe0;fill-opacity:1;stroke:#000000;stroke-width:0.33020064;stroke-linecap:butt;stroke-linejoin:miter;stroke-miterlimit:4;stroke-dasharray:none;stroke-opacity:1"
       d="m 88.685192,53.145372 -2.20758,-2.581176 3.79039,-2.720315 1.92945,2.591323"
       id="path1908-9-5"
       inkscape:connector-curvature="0"
       sodipodi:nodetypes="cccc" />
  </g>
</svg>
